<svg viewBox="0 0 800 200" xmlns="http://www.w3.org/2000/svg">
  <defs>
    <linearGradient id="woodGradient" x1="0%" y1="0%" x2="100%" y2="100%">
      <stop offset="0%" style="stop-color:#c48b4a;stop-opacity:1" />
      <stop offset="100%" style="stop-color:#8b5e3c;stop-opacity:1" />
    </linearGradient>
  </defs>

  <g transform="translate(60, 40)">
    <path d="M40 0 C 65 0, 80 15, 80 40 L 80 80 C 80 105, 65 120, 40 120 C 15 120, 0 105, 0 80 L 0 40 C 0 15, 15 0, 40 0 Z" fill="none" stroke="url(#woodGradient)" stroke-width="3"/>
    <path d="M20 30 L 60 30 M20 50 L 60 50 M20 70 L 60 70 M20 90 L 60 90" stroke="#8b5e3c" stroke-width="2" stroke-linecap="round"/>
    <path d="M40 15 L 45 25 L 55 25 L 47 32 L 50 42 L 40 36 L 30 42 L 33 32 L 25 25 L 35 25 Z" fill="url(#woodGradient)"/>
  </g>

  <g transform="translate(180, 80)">
    <text x="0" y="0" font-family="Arial, sans-serif" font-weight="bold" font-size="36" letter-spacing="4" fill="#ffffff">MELBOURNE PRESTIGE SAUNA</text>
    <text x="0" y="40" font-family="Arial, sans-serif" font-weight="300" font-size="18" letter-spacing="6" fill="#c48b4a">CUSTOM CEDAR SAUNAS</text>
  </g>
</svg>